<svg version="1.1" id="Layer_1" xmlns="http://www.w3.org/2000/svg" xmlns:xlink="http://www.w3.org/1999/xlink" x="0px" y="0px"
	 width="100%" viewBox="0 0 512 512" enable-background="new 0 0 512 512" xml:space="preserve">
<path fill="#DD3E88" opacity="1.000000" stroke="none" 
	d="
M224.685303,1.246248 
	C246.020889,1.000000 267.041779,1.000000 288.531342,1.000000 
	C293.573944,2.858684 298.454193,2.052693 303.175903,2.627540 
	C320.507965,4.737639 336.925171,10.173325 353.098633,16.444571 
	C378.013733,26.105371 400.736176,39.659897 421.173187,56.737297 
	C445.886871,77.388336 466.743591,101.438583 482.593933,129.695831 
	C494.913055,151.657806 503.750122,174.879837 509.584351,199.335342 
	C511.558899,207.612076 511.071655,216.108749 512.757690,224.704468 
	C513.000000,246.020889 513.000000,267.041779 513.000000,288.531342 
	C511.141602,293.572540 511.942383,298.450714 511.373962,303.171692 
	C509.307526,320.335815 503.950073,336.606140 497.755035,352.619202 
	C486.945953,380.558655 471.399384,405.750702 451.510651,428.011261 
	C414.033783,469.957428 367.917847,497.699615 312.805542,510.005585 
	C305.169220,511.710663 297.294708,511.355530 289.295471,512.757751 
	C267.979095,513.000000 246.958206,513.000000 225.468658,513.000000 
	C220.771957,511.132843 216.210419,511.863708 211.814331,511.409332 
	C194.241196,509.592926 177.687408,504.056396 161.375595,497.736389 
	C133.454269,486.918243 108.235092,471.413483 85.977814,451.510315 
	C44.050041,414.017120 16.298740,367.914581 3.994189,312.804535 
	C2.289277,305.168549 2.643803,297.294464 1.242260,289.295471 
	C1.000000,267.645782 1.000000,246.291550 1.000000,224.468658 
	C2.866361,219.779266 2.108115,215.230148 2.628732,210.841919 
	C4.682039,193.534836 10.167572,177.175201 16.377287,161.026031 
	C19.719168,152.335022 23.613558,143.878067 28.039585,135.681107 
	C29.524054,132.931870 30.787977,129.977203 33.869663,127.934753 
	C36.106369,127.130150 37.834293,127.520966 39.332748,128.723038 
	C46.727474,134.655136 55.239403,138.581085 64.064095,142.688126 
	C65.447838,144.461777 65.564407,146.268906 64.522865,147.615341 
	C62.000870,150.875626 63.619061,153.000259 65.987251,155.260208 
	C68.988853,158.124619 71.870567,161.116867 74.751274,164.105743 
	C76.025269,165.427582 77.284286,166.767746 77.379242,169.118011 
	C76.489677,174.291214 74.178596,178.566925 72.380180,183.034912 
	C61.190308,210.835114 56.563122,239.815048 58.499062,269.600037 
	C60.661739,302.873444 70.395500,333.966187 88.378120,362.255890 
	C92.264915,368.370453 92.817169,368.384003 97.862885,363.341339 
	C124.845642,336.374786 151.817215,309.397064 178.793121,282.423645 
	C180.441940,280.775024 182.025742,279.057983 184.218750,277.473267 
	C195.838806,265.392853 207.044052,253.409027 219.637939,242.340698 
	C222.922485,238.057236 226.531479,234.577026 230.631851,231.102661 
	C234.097717,226.992432 237.592728,223.396820 241.822266,220.052612 
	C253.029190,207.610199 264.871094,196.284683 276.951355,184.685349 
	C291.778290,168.871216 307.219208,154.174683 322.210205,139.032745 
	C335.917114,125.187874 349.755280,111.473000 363.517853,97.683105 
	C368.339020,92.852295 368.330872,92.219086 362.473022,88.528564 
	C338.614380,73.497345 312.703156,64.105782 284.758636,60.187805 
	C251.978714,55.591885 220.095581,59.112736 188.914001,70.036369 
	C182.643616,72.233017 177.016464,76.085846 169.967834,77.223938 
	C167.154358,77.728775 165.588348,76.193657 164.019577,74.700096 
	C161.019699,71.844040 158.057785,68.944359 155.216553,65.933876 
	C152.947281,63.529438 150.750992,62.021088 147.579239,64.551430 
	C146.523880,65.393364 145.075027,65.308975 143.434372,64.628624 
	C141.413300,62.953236 141.023407,60.773705 140.172379,58.836346 
	C137.589432,52.956333 134.708542,47.268620 130.696609,42.175938 
	C129.120529,40.175278 127.164818,38.155701 127.604126,34.807182 
	C128.904083,31.335777 131.808578,30.115379 134.381622,28.732571 
	C155.630386,17.313074 178.092789,9.109445 201.638474,3.926026 
	C209.102219,2.282933 216.824829,2.617076 224.685303,1.246248 
z"/>
<path fill="none" opacity="1.000000" stroke="none" 
	d="
M513.000000,224.531342 
	C511.188049,225.840225 511.129456,224.435898 511.040100,223.355835 
	C509.524902,205.042725 504.622162,187.492035 498.571442,170.280670 
	C490.978546,148.682495 480.426910,128.528458 467.248047,109.790108 
	C454.973541,92.337685 440.463043,76.957626 424.468414,62.833439 
	C406.702454,47.145119 387.041382,34.431145 365.688385,24.409285 
	C346.373871,15.344175 326.125488,8.929570 305.114349,4.866709 
	C299.595581,3.799561 293.802032,4.135988 288.767212,1.386411 
	C362.261658,1.000000 435.523407,1.035820 508.784790,0.894920 
	C512.473450,0.887826 513.097412,1.757346 513.091553,5.276858 
	C512.970032,78.205315 513.000000,151.134018 513.000000,224.531342 
z"/>
<path fill="none" opacity="1.000000" stroke="none" 
	d="
M1.000000,289.468658 
	C2.828078,288.162323 2.869099,289.580353 2.960432,290.662781 
	C4.531332,309.279968 9.690918,327.030029 15.827466,344.561249 
	C24.396347,369.041351 37.067924,391.251892 52.469414,412.037415 
	C62.565720,425.663147 74.417870,437.669647 86.806564,449.068512 
	C99.557526,460.800781 113.801720,470.708588 128.846420,479.387817 
	C145.526688,489.010651 163.059891,496.661652 181.505173,502.210846 
	C195.071899,506.292328 208.763138,509.791168 222.938141,510.991455 
	C223.989059,511.080475 224.905807,511.237701 225.233765,512.614624 
	C151.738327,513.000000 78.476593,512.964172 5.215190,513.105103 
	C1.526532,513.112183 0.902595,512.242676 0.908459,508.723145 
	C1.029969,435.794708 1.000000,362.865967 1.000000,289.468658 
z"/>
<path fill="none" opacity="1.000000" stroke="none" 
	d="
M289.468658,513.000000 
	C288.165497,511.170868 289.582611,511.150543 290.666595,511.036072 
	C321.186615,507.812622 349.702515,498.125916 376.766266,483.992950 
	C393.420898,475.295685 408.808990,464.688354 423.125366,452.453613 
	C443.661041,434.903900 461.344971,414.846893 475.483154,391.918335 
	C491.203613,366.423859 502.332642,338.940796 508.077332,309.397736 
	C509.292816,303.147095 510.955841,296.987885 511.028168,290.566650 
	C511.038452,289.651581 511.477234,289.003906 512.614014,288.766541 
	C513.000000,362.261658 512.964172,435.523407 513.105042,508.784790 
	C513.112183,512.473450 512.242676,513.097412 508.723145,513.091553 
	C435.794708,512.970032 362.865967,513.000000 289.468658,513.000000 
z"/>
<path fill="none" opacity="1.000000" stroke="none" 
	d="
M224.531342,1.000000 
	C225.636169,3.126098 224.019974,2.860315 222.847427,2.984994 
	C198.764862,5.545720 175.916351,12.550166 153.731781,22.025316 
	C145.189423,25.673807 136.979645,29.938622 128.701797,34.882778 
	C125.585876,36.052719 124.168587,33.831779 122.576279,32.285160 
	C114.954788,24.882360 107.579559,17.230181 99.983795,9.800656 
	C95.886078,5.792636 94.893776,5.822425 91.429733,10.394062 
	C79.494743,26.145124 75.813774,43.756058 79.746895,63.047096 
	C80.308540,65.801865 81.414879,68.448669 81.319595,71.690323 
	C79.178833,75.667221 76.376038,78.560631 72.544083,80.968521 
	C69.113083,81.966476 66.341637,80.434731 63.459385,79.831490 
	C43.952991,75.748901 26.168510,79.396683 10.269318,91.546242 
	C5.648712,95.077133 5.639749,95.809700 9.808050,100.023712 
	C17.059504,107.354668 24.434622,114.562943 31.660231,121.919220 
	C33.244450,123.532089 35.365311,124.896973 35.196564,127.953430 
	C20.112188,153.348938 10.599840,180.417480 4.875843,208.963074 
	C3.839239,214.132629 4.253642,219.617264 1.378481,224.244400 
	C1.000000,151.071487 1.036031,78.142906 0.894796,5.214671 
	C0.887650,1.524596 1.759262,0.902722 5.277360,0.908576 
	C78.205650,1.029919 151.134186,1.000000 224.531342,1.000000 
z"/>
<path fill="#E6E6E6" opacity="1.000000" stroke="none" 
	d="
M311.867126,251.863022 
	C313.482269,249.902649 314.901276,248.267273 316.428040,246.739563 
	C350.084839,213.062378 383.745422,179.388977 417.429565,145.739136 
	C421.960999,141.212326 421.180908,140.442215 425.270782,146.723587 
	C474.360626,222.117340 467.904144,321.342896 409.294189,388.248352 
	C405.928650,389.434296 404.415283,387.054718 402.705048,385.375946 
	C390.350311,373.248657 378.240295,360.875275 365.958893,348.674408 
	C346.237335,329.082153 326.700684,309.305176 306.958313,289.734009 
	C304.948517,287.741638 302.881256,285.797485 301.600769,282.775635 
	C301.221771,281.606750 301.007263,280.687836 301.402679,279.987640 
	C306.318726,271.282135 307.949188,261.362122 311.867126,251.863022 
z"/>
<path fill="#E6E6E6" opacity="1.000000" stroke="none" 
	d="
M388.555176,408.646179 
	C365.821259,429.200958 339.727661,443.221436 310.487549,450.906403 
	C252.144012,466.240479 197.362442,457.592743 146.443604,425.090881 
	C141.338104,421.832031 141.350220,421.801147 145.619598,417.531494 
	C179.294754,383.854431 212.969543,350.177032 246.656387,316.511627 
	C248.065216,315.103699 249.591766,313.813538 251.286133,312.254456 
	C255.015976,310.509796 258.525879,309.092529 262.341827,308.352692 
	C265.921997,307.658539 269.390045,306.352936 272.755768,304.901611 
	C283.083252,300.448242 283.098511,300.399475 290.936066,308.210114 
	C321.954559,339.122009 352.866119,370.140900 383.828552,401.108887 
	C385.853424,403.134155 388.804108,404.721985 388.555176,408.646179 
z"/>
<path fill="#F98C3C" opacity="1.000000" stroke="none" 
	d="
M79.946701,72.236923 
	C72.182335,49.342018 75.126404,28.372480 89.360107,9.203186 
	C96.323914,-0.175350 95.087784,1.758098 102.064064,8.607285 
	C110.825050,17.208662 119.422043,25.977089 128.265228,34.918121 
	C133.864471,42.413284 139.482193,49.550625 142.471451,58.272461 
	C143.109772,60.134880 143.565720,62.059803 144.139709,64.390930 
	C146.513062,67.660217 144.209381,69.917343 143.008072,72.057686 
	C139.061829,79.088646 135.980652,86.407173 134.927719,94.438187 
	C132.296646,114.506042 136.806641,132.477554 151.142303,147.300995 
	C159.817780,156.271667 168.729797,165.015778 177.624191,173.771683 
	C179.294693,175.416183 180.830109,178.517654 183.667526,177.084595 
	C186.779419,175.512924 185.671967,172.149811 185.325546,169.406219 
	C183.013596,151.095291 186.988403,134.411240 198.387939,119.308762 
	C199.178528,118.635658 199.822418,118.341286 200.200714,117.798042 
	C204.772354,111.233047 206.671570,110.990082 212.381546,116.649261 
	C222.510788,126.688347 232.836960,136.548279 242.548553,146.982956 
	C250.094650,155.090912 255.582794,164.519638 256.841705,176.283447 
	C255.769272,180.952820 252.523010,184.054794 250.752335,187.991837 
	C247.099762,196.113205 245.357437,204.664597 244.472763,213.428314 
	C244.221909,215.913361 243.697159,218.325684 243.159668,221.146118 
	C239.624451,224.962845 236.207870,228.401733 232.507477,232.011383 
	C229.029114,233.283829 227.270706,231.026291 225.411316,229.179474 
	C217.983429,221.801926 210.617279,214.362274 203.182724,206.991302 
	C183.621475,187.597443 152.553467,183.787430 128.614243,197.751816 
	C126.197556,199.161514 123.948303,200.977249 120.729507,201.611633 
	C106.950546,199.554108 96.490631,192.252625 87.177032,182.943314 
	C84.594955,180.362427 82.027428,177.766632 79.417870,175.213669 
	C77.845032,173.674957 76.481262,172.042053 76.187393,169.367050 
	C71.591866,164.392380 67.319023,159.543076 62.556923,155.234573 
	C59.058765,152.069595 58.410629,149.642593 62.603928,146.807236 
	C63.234665,146.380753 63.574188,145.523575 64.104843,144.527390 
	C65.799637,139.515747 70.434952,138.478745 74.058922,136.513107 
	C86.968506,129.510910 100.991081,128.745987 115.269096,130.091278 
	C116.587128,130.215469 117.881111,130.628021 119.214561,130.300568 
	C122.113892,129.588593 122.967178,127.539261 121.182709,125.156090 
	C119.689857,123.162376 117.718277,121.578506 115.991844,119.781227 
	C106.557831,109.960098 96.348648,100.896889 87.296844,90.221344 
	C86.910194,87.023918 84.898216,85.173729 83.392212,82.996948 
	C81.252922,79.904816 78.605469,76.891975 79.946701,72.236923 
z"/>
<path fill="#E6E6E6" opacity="1.000000" stroke="none" 
	d="
M75.912262,169.326355 
	C79.893852,172.696777 83.860741,176.244354 87.503311,180.098419 
	C96.392471,189.503723 106.927956,196.142181 119.709602,199.875031 
	C120.573898,200.763000 120.764893,201.754623 120.245399,202.357758 
	C116.856964,206.291763 119.360489,208.751297 122.149750,211.466278 
	C130.255264,219.356003 138.223236,227.387665 146.143341,235.464020 
	C153.258743,242.719803 161.648346,247.924561 171.156342,251.392227 
	C172.874817,252.018982 174.653000,252.505920 176.186951,254.168243 
	C177.021408,256.059479 176.571747,257.539062 175.396011,258.558533 
	C172.475098,261.091278 173.736359,263.087128 175.899292,265.200806 
	C178.517944,267.759888 181.092041,270.366272 183.654648,272.982697 
	C184.943375,274.298462 186.267532,275.603821 186.057190,278.037415 
	C185.093445,279.507874 184.172516,280.693878 183.119385,281.747833 
	C154.047867,310.841370 124.931755,339.890503 95.931152,369.054474 
	C93.205719,371.795258 91.808815,372.345459 89.466377,368.603973 
	C49.458015,304.700562 44.778690,238.413681 75.912262,169.326355 
z"/>
<path fill="#E6E6E6" opacity="1.000000" stroke="none" 
	d="
M255.499420,175.919281 
	C252.185120,163.812805 246.220718,153.612259 237.523376,144.963501 
	C228.436661,135.927582 219.400528,126.840805 210.339066,117.779480 
	C206.027527,113.468018 206.024704,113.471893 201.938324,118.284035 
	C201.507568,118.791283 201.065445,119.288864 200.330414,119.949875 
	C197.800140,119.997581 196.831726,118.390251 196.283585,116.608810 
	C192.265121,103.548477 183.500381,93.861961 173.963120,84.644363 
	C171.690079,82.447517 168.329391,80.732040 168.837769,76.389328 
	C238.085022,44.716114 304.683929,49.296474 368.846985,89.701706 
	C371.190796,91.177689 372.857941,92.170494 369.897522,95.106590 
	C339.510742,125.243767 309.261475,155.519562 278.702942,185.922897 
	C276.520813,186.198410 274.908051,185.640961 273.547180,184.209732 
	C272.185242,182.777390 270.637695,181.508972 269.348969,180.015442 
	C265.651489,175.730377 261.944641,171.710861 255.499420,175.919281 
z"/>
<path fill="#FBCD58" opacity="1.000000" stroke="none" 
	d="
M88.848396,89.211586 
	C100.323891,100.821030 111.662735,112.048836 122.888138,123.388924 
	C124.241768,124.756386 127.323799,125.874878 125.800941,128.405014 
	C124.205109,131.056351 121.838303,133.485458 118.114166,132.971085 
	C114.496452,132.471420 110.889946,132.061539 107.226242,131.881332 
	C93.302429,131.196442 80.597908,134.793549 68.851593,142.149490 
	C67.606606,142.929138 66.184731,143.426315 64.503090,144.121826 
	C53.222828,141.688797 44.178410,135.741196 35.442986,128.450577 
	C24.347788,117.207001 13.598941,106.113663 2.824744,94.994164 
	C17.903038,78.581406 45.777054,70.418488 71.517471,79.831818 
	C76.978722,78.531715 80.702751,81.392990 84.278175,84.235580 
	C85.910980,85.533730 87.351036,87.185844 88.848396,89.211586 
z"/>
<path fill="#FBCD58" opacity="1.000000" stroke="none" 
	d="
M168.735123,75.914650 
	C172.604263,79.781342 176.037842,83.633675 179.776428,87.162933 
	C189.308746,96.161530 196.156876,106.766335 199.890610,119.762337 
	C191.462265,132.878494 186.375870,146.739563 187.042267,162.329391 
	C187.190979,165.808609 187.694702,169.284988 188.242661,172.729645 
	C188.519501,174.469971 188.412704,175.906494 187.430252,177.448425 
	C184.300995,182.359695 182.939209,182.588501 178.833588,178.489090 
	C169.047287,168.717621 159.215027,158.991043 149.518066,149.131531 
	C129.747452,129.029434 125.910469,96.196175 140.381363,71.899933 
	C141.656342,69.759254 142.848724,67.569374 144.126602,65.114136 
	C147.249039,63.788589 148.021484,58.394855 151.719772,59.692638 
	C154.407104,60.635662 156.318436,63.808659 158.557571,66.005928 
	C161.859695,69.246346 165.145645,72.503265 168.735123,75.914650 
z"/>
<path fill="#F98D3F" opacity="1.000000" stroke="none" 
	d="
M388.757996,408.889252 
	C380.756622,401.197937 373.082764,393.355743 365.329468,385.592834 
	C338.767090,358.997589 312.144226,332.462646 285.650116,305.799652 
	C283.128693,303.262177 281.356384,302.830292 278.070221,304.691833 
	C270.190735,309.155365 261.628235,311.817413 251.988464,312.098755 
	C261.399780,302.091034 271.290741,292.141663 281.460663,282.019409 
	C285.392517,280.565826 287.085083,283.452423 289.150360,285.410736 
	C293.462555,289.499664 293.723450,289.511505 297.485077,285.027466 
	C298.742645,283.528381 299.917664,281.813446 302.617371,282.638123 
	C332.776550,312.635590 362.643646,342.440399 392.513580,372.242340 
	C397.805573,377.522308 403.109406,382.790405 408.704834,388.256287 
	C403.263733,396.119965 396.260437,402.549438 388.757996,408.889252 
z"/>
<path fill="#FBCD58" opacity="1.000000" stroke="none" 
	d="
M176.069794,255.349060 
	C164.293137,252.403152 154.445663,246.775391 146.100357,238.574707 
	C136.621506,229.260117 127.277260,219.808502 117.879265,210.411697 
	C113.511681,206.044678 113.518272,206.041351 118.268166,201.958710 
	C118.771561,201.526062 119.244049,201.057434 119.889954,200.310684 
	C132.966797,191.454605 146.942596,186.222809 162.669220,187.044449 
	C178.490845,187.871048 192.489700,193.352493 203.983246,204.455048 
	C213.303741,213.458481 222.426071,222.667007 231.929977,231.983337 
	C229.153656,236.088531 225.472977,239.395752 221.569000,242.923538 
	C216.302643,244.415680 211.154999,244.703339 206.075073,245.431213 
	C197.582550,246.648056 189.709763,249.565048 182.368713,253.988800 
	C180.562775,255.077087 178.813873,256.621002 176.069794,255.349060 
z"/>
<path fill="#FBCC58" opacity="1.000000" stroke="none" 
	d="
M255.055283,176.039276 
	C261.572296,169.019638 261.577087,169.014862 268.157654,175.606781 
	C271.445740,178.900528 274.712616,182.215454 278.210571,185.804947 
	C266.832001,197.763138 255.231964,209.437180 243.336487,221.317596 
	C240.640228,207.385803 244.554565,194.547501 251.179611,182.289780 
	C252.285080,180.244400 253.648178,178.338272 255.055283,176.039276 
z"/>
<path fill="#F98D3D" opacity="1.000000" stroke="none" 
	d="
M175.573196,255.406555 
	C186.242752,248.281158 197.463974,243.385132 210.179276,242.436905 
	C213.646469,242.178345 217.074295,241.699570 220.884277,242.931366 
	C209.740906,254.719315 198.191238,266.348602 186.358780,278.180664 
	C181.489288,273.874268 177.048599,269.201996 172.261292,264.916962 
	C169.376007,262.334412 169.002182,260.440460 172.402725,258.229004 
	C173.498688,257.516266 174.419434,256.534058 175.573196,255.406555 
z"/>
<path fill="#FBCD59" opacity="1.000000" stroke="none" 
	d="
M302.938721,282.478333 
	C300.178131,284.112610 299.159760,286.932068 297.436676,289.085358 
	C294.893890,292.262970 292.751984,293.265686 289.738068,289.508881 
	C287.588959,286.830017 284.817505,284.650391 282.031677,282.047241 
	C291.629486,271.862366 301.519409,261.878235 311.711182,251.690979 
	C312.243530,260.889038 309.073608,269.381134 305.034912,277.644745 
	C304.313019,279.121887 303.655975,280.630707 302.938721,282.478333 
z"/>
<path fill="#DE4186" opacity="1.000000" stroke="none" 
	d="
M89.000534,89.167305 
	C83.731003,86.065430 78.286308,82.856644 72.135666,80.209373 
	C74.365196,77.365952 76.862953,74.759079 79.670044,72.008453 
	C82.980164,77.501572 85.980942,83.138451 89.000534,89.167305 
z"/>
</svg>