<svg width="41" height="47" viewBox="0 0 41 47" fill="none" xmlns="http://www.w3.org/2000/svg">
<path d="M27.4921 0.299102C20.5916 0.464242 15.1497 7.03344 15.3396 14.969C15.3612 15.8687 15.4547 16.7464 15.6126 17.5968L0.825403 35.4472L1.03175 44.0697C1.06972 45.6562 2.22022 46.9171 3.59982 46.8841L6.09911 46.8242L6.03032 43.9501L11.0289 43.8304L10.8913 38.0821L15.8899 37.9625L15.7523 32.2141L20.7509 32.0945L23.9057 28.2862C25.246 28.8062 26.6879 29.0766 28.18 29.0409C35.0805 28.8757 40.5224 22.3065 40.3325 14.3709C40.1426 6.43533 34.3927 0.133961 27.4921 0.299102ZM31.5801 14.5861C29.5107 14.6357 27.785 12.7444 27.728 10.3646C27.6711 7.98477 29.3044 6.01313 31.3738 5.96361C33.4432 5.91408 35.1689 7.80534 35.2259 10.1852C35.2828 12.565 33.6495 14.5366 31.5801 14.5861Z" fill="black"/>
</svg>
