<svg width="64" height="66" viewBox="0 0 64 66" fill="none" xmlns="http://www.w3.org/2000/svg">
<path d="M31.8363 0C14.2547 0 0 14.5647 0 32.5286C0 50.4926 14.2547 65.0572 31.8363 65.0572C49.4179 65.0572 63.6726 50.4926 63.6726 32.5286C63.6726 14.5647 49.4179 0 31.8363 0ZM15.9182 16.2643H47.7545C48.3235 16.2643 48.8727 16.3904 49.3821 16.6221L31.8363 37.534L14.2905 16.6221C14.7959 16.3863 15.3491 16.2643 15.9182 16.2643ZM11.9386 44.7269V20.3304C11.9386 20.245 11.9426 20.1596 11.9466 20.0742L23.6146 33.9843L12.0739 45.7759C11.9824 45.4384 11.9386 45.0847 11.9386 44.7269ZM47.7545 48.7929H15.9182C15.568 48.7929 15.2217 48.7441 14.8914 48.6547L26.2172 37.0826L31.8403 43.7835L37.4634 37.0826L48.7892 48.6547C48.4589 48.7482 48.1126 48.7929 47.7624 48.7929H47.7545ZM51.734 44.7269C51.734 45.0847 51.6863 45.4384 51.5987 45.7759L40.058 33.9843L51.7261 20.0742C51.73 20.1596 51.734 20.245 51.734 20.3304V44.7269Z" fill="black"/>
</svg>
