<svg width="52" height="64" viewBox="0 0 52 64" fill="none" xmlns="http://www.w3.org/2000/svg">
<path d="M12.9235 12.6399C12.9235 5.65847 18.707 0 25.8427 0C32.9784 0 38.7619 5.65847 38.7619 12.6399C38.7619 19.6214 32.9784 25.2798 25.8427 25.2798C18.707 25.2798 12.9235 19.6214 12.9235 12.6399ZM43.0726 29.4931H40.6912L27.294 56.1044L32.3023 31.5998L25.8427 25.2798L19.3831 31.5998L24.3914 56.1044L10.9942 29.4931H8.60849C0 29.4931 0 35.1558 0 42.133V63.1996H51.6768V42.133C51.6768 35.1558 51.6768 29.4931 43.0683 29.4931H43.0726Z" fill="black"/>
</svg>
