<svg version="1.1" id="Layer_1" xmlns="http://www.w3.org/2000/svg" xmlns:xlink="http://www.w3.org/1999/xlink" x="0px" y="0px"
	 width="100%" viewBox="0 0 512 512" enable-background="new 0 0 512 512" xml:space="preserve">
<path fill="#9F9F9F" opacity="1.000000" stroke="none" 
	d="
M513.000000,236.000000 
	C513.000000,249.354233 513.000000,262.708466 512.704102,276.802490 
	C509.624939,293.075165 507.823944,308.863464 503.865173,324.090729 
	C493.951141,362.224762 475.488007,396.051910 449.363647,425.579010 
	C409.574768,470.550354 360.125122,498.481232 300.982727,509.110626 
	C293.012909,510.543030 284.995422,511.710083 277.000000,513.000000 
	C277.000000,513.000000 276.500000,513.000000 276.088867,512.678101 
	C274.067749,511.611359 272.528381,510.567017 270.836823,510.168304 
	C255.650116,506.588654 240.171143,503.990753 225.287476,499.438660 
	C196.068207,490.502106 169.926941,475.419037 146.016998,456.483459 
	C143.369995,454.387177 141.302368,451.559296 139.319946,449.113251 
	C168.620438,465.897522 199.444977,477.219635 232.874298,480.388275 
	C244.210831,481.462860 255.684814,481.087402 267.555664,481.386475 
	C363.720978,473.441589 431.164154,425.445312 466.796173,336.421173 
	C492.575623,272.012970 485.636444,208.375259 452.705383,147.376740 
	C450.985535,149.332626 449.973480,151.347473 449.121857,153.427994 
	C445.716248,161.747711 442.378113,170.095001 438.982880,178.418976 
	C430.176971,200.007904 416.813690,217.348846 394.595123,226.670990 
	C379.845367,232.859451 364.399719,235.955093 348.616791,237.635178 
	C339.642365,238.590500 334.135468,243.290848 331.232452,251.779526 
	C317.349640,292.374451 308.576141,334.271759 299.383331,376.060791 
	C295.484894,393.782288 291.892609,411.570923 288.087189,429.313202 
	C286.561066,436.428528 282.111237,440.913330 274.901306,441.814606 
	C269.992218,442.428284 264.958466,442.044739 259.901367,441.770813 
	C257.370331,437.557678 253.778641,433.981995 252.661102,429.752594 
	C247.461121,410.072937 242.948425,390.211761 238.184540,370.416779 
	C234.351654,354.490356 230.892075,338.461487 226.570129,322.668762 
	C221.975067,305.877991 216.498016,289.330109 211.518341,272.642670 
	C205.717758,253.204346 199.514587,233.853210 189.124649,216.343185 
	C182.214294,204.697327 173.869873,193.905014 166.245972,182.677277 
	C165.000900,180.843689 164.163620,178.733231 163.492233,176.778961 
	C170.842285,183.133209 178.483215,188.884659 184.719025,195.887360 
	C208.443283,222.529236 224.153442,253.875397 235.065979,287.481323 
	C242.703415,311.001343 248.413849,335.148834 254.910980,359.036163 
	C256.359772,364.362732 257.140076,364.921997 262.291626,363.094910 
	C264.449890,363.155273 266.262787,363.150391 268.069336,363.040863 
	C277.973877,362.440552 281.993469,359.144073 284.318146,349.550751 
	C286.897705,338.905823 289.004517,328.130249 292.001099,317.606323 
	C296.176819,302.941193 300.201019,288.151978 305.701050,273.962799 
	C315.197327,249.464035 327.044403,226.072464 343.009644,204.996658 
	C353.603394,191.011765 365.580750,178.409897 379.973572,168.243988 
	C383.609802,165.675659 387.505646,163.413284 390.849365,160.511551 
	C393.584442,158.138046 392.462982,154.141342 389.166473,154.411591 
	C382.869812,154.927795 376.669525,156.619598 370.063538,157.751450 
	C368.386780,157.717361 367.036865,157.564484 365.770569,157.822327 
	C351.169830,160.794983 337.498108,166.180862 325.100006,174.441010 
	C316.994659,179.841156 309.257996,185.794662 301.308777,191.075455 
	C301.532043,189.189224 301.705231,187.701721 302.088562,186.270477 
	C306.103912,171.277817 311.793701,157.027359 319.979889,143.743729 
	C327.081268,132.220398 335.365356,121.641579 345.350647,112.641525 
	C357.070312,102.078224 370.347443,93.769180 384.828400,87.179626 
	C406.843994,77.161438 429.699707,70.803650 453.802124,68.676270 
	C453.819641,68.552147 454.070801,68.539787 454.070801,68.539787 
	C454.070801,68.539787 454.130798,68.783379 454.602356,68.820236 
	C455.689636,68.855278 456.305420,68.853455 457.360168,68.876778 
	C461.174652,68.089134 464.550171,67.276344 468.351624,66.376228 
	C477.571808,66.834244 486.388855,67.161591 495.144562,68.076057 
	C497.372314,68.308739 499.405334,70.406105 501.527832,71.646698 
	C500.202820,73.567528 499.274994,76.048637 497.486877,77.316154 
	C487.585083,84.335022 479.584961,93.039696 472.519745,102.872902 
	C468.398926,108.608231 466.864563,113.505486 472.522552,118.898026 
	C473.331055,119.668571 473.725952,120.867096 474.335602,121.853127 
	C491.947601,150.338608 503.867310,180.973190 509.231995,214.095612 
	C510.416443,221.408661 511.740326,228.699127 513.000000,236.000000 
z"/>
<path fill="#878787" opacity="1.000000" stroke="none" 
	d="
M138.966019,449.070740 
	C141.302368,451.559296 143.369995,454.387177 146.016998,456.483459 
	C169.926941,475.419037 196.068207,490.502106 225.287476,499.438660 
	C240.171143,503.990753 255.650116,506.588654 270.836823,510.168304 
	C272.528381,510.567017 274.067749,511.611359 275.838867,512.678101 
	C263.312439,513.000000 250.624878,513.000000 237.182144,512.713501 
	C216.007248,510.350189 195.896500,506.754700 176.413544,500.121643 
	C122.325684,481.707367 78.834183,449.127472 46.185829,402.243073 
	C24.843641,371.594849 11.033228,337.784363 4.754423,300.938782 
	C3.452888,293.301056 2.248930,285.646698 1.000000,278.000000 
	C1.000000,263.979095 1.000000,249.958206 1.332481,235.241348 
	C3.954145,214.850754 7.384708,195.395386 13.787621,176.560135 
	C32.340042,121.985069 65.262207,78.199669 112.721191,45.507286 
	C143.145767,24.549149 176.634109,10.883036 213.132996,4.758417 
	C220.426834,3.534487 227.711243,2.254268 235.000000,1.000001 
	C248.354233,1.000000 261.708466,1.000000 275.370422,1.321854 
	C273.735931,2.409901 271.849518,3.624077 269.842957,3.874053 
	C245.704681,6.881227 222.498093,13.460047 200.755753,24.132545 
	C185.320801,31.709000 170.630966,40.890583 156.023636,50.019920 
	C150.720627,53.334229 146.621460,58.574730 141.798279,63.013809 
	C141.623535,63.091248 141.248032,63.162601 140.935593,63.191658 
	C140.068649,63.776958 139.514160,64.333206 138.684814,65.080124 
	C136.677185,66.567383 134.989197,67.929382 133.204956,69.150764 
	C106.221573,87.621735 83.563927,110.255859 66.221054,138.120636 
	C42.780830,175.781952 31.640797,216.861115 32.241978,261.073334 
	C32.581654,286.053375 37.091282,310.386536 45.736012,333.907013 
	C57.649830,366.321960 75.646729,394.891876 100.933746,418.398590 
	C112.832825,429.459930 126.241440,438.897430 138.966019,449.070740 
z"/>
<path fill="#F9F9F9" opacity="1.000000" stroke="none" 
	d="
M277.468658,513.000000 
	C284.995422,511.710083 293.012909,510.543030 300.982727,509.110626 
	C360.125122,498.481232 409.574768,470.550354 449.363647,425.579010 
	C475.488007,396.051910 493.951141,362.224762 503.865173,324.090729 
	C507.823944,308.863464 509.624939,293.075165 512.704102,277.271118 
	C513.000000,355.593719 513.000000,434.187408 513.000000,513.000000 
	C434.645905,513.000000 356.291626,513.000000 277.468658,513.000000 
z"/>
<path fill="#F9F9F9" opacity="1.000000" stroke="none" 
	d="
M1.000000,278.468658 
	C2.248930,285.646698 3.452888,293.301056 4.754423,300.938782 
	C11.033228,337.784363 24.843641,371.594849 46.185829,402.243073 
	C78.834183,449.127472 122.325684,481.707367 176.413544,500.121643 
	C195.896500,506.754700 216.007248,510.350189 236.713486,512.713501 
	C158.406448,513.000000 79.812904,513.000000 1.000000,513.000000 
	C1.000000,434.979248 1.000000,356.958282 1.000000,278.468658 
z"/>
<path fill="#F9F9F9" opacity="1.000000" stroke="none" 
	d="
M234.531342,1.000001 
	C227.711243,2.254268 220.426834,3.534487 213.132996,4.758417 
	C176.634109,10.883036 143.145767,24.549149 112.721191,45.507286 
	C65.262207,78.199669 32.340042,121.985069 13.787621,176.560135 
	C7.384708,195.395386 3.954145,214.850754 1.332481,234.772690 
	C1.000000,157.072952 1.000000,79.145912 1.000000,1.000000 
	C78.687424,1.000000 156.375061,1.000000 234.531342,1.000001 
z"/>
<path fill="#F9F9F9" opacity="1.000000" stroke="none" 
	d="
M513.000000,235.531342 
	C511.740326,228.699127 510.416443,221.408661 509.231995,214.095612 
	C503.867310,180.973190 491.947601,150.338608 474.335602,121.853127 
	C473.725952,120.867096 473.331055,119.668571 472.522552,118.898026 
	C466.864563,113.505486 468.398926,108.608231 472.519745,102.872902 
	C479.584961,93.039696 487.585083,84.335022 497.486877,77.316154 
	C499.274994,76.048637 500.202820,73.567528 501.527832,71.646698 
	C499.405334,70.406105 497.372314,68.308739 495.144562,68.076057 
	C486.388855,67.161591 477.571808,66.834244 467.915100,66.294411 
	C463.679779,66.458847 460.306915,66.617775 456.488281,66.747894 
	C455.405273,67.407188 454.768036,68.095284 454.130798,68.783386 
	C454.130798,68.783379 454.070801,68.539787 454.070801,68.539787 
	C454.070801,68.539787 453.819641,68.552147 453.869843,68.191193 
	C452.198914,67.512810 450.471344,66.894402 448.757782,66.930977 
	C441.964233,67.076050 435.175049,67.425949 428.261475,67.385658 
	C427.574310,66.466316 427.057922,65.806435 426.438690,65.264008 
	C388.716675,32.222851 345.164429,11.623660 295.555939,3.949875 
	C289.366608,2.992470 283.185120,1.984526 277.000000,1.000000 
	C355.593567,1.000000 434.187134,1.000000 513.000000,1.000000 
	C513.000000,79.020760 513.000000,157.041718 513.000000,235.531342 
z"/>
<path fill="#9F9F9F" opacity="1.000000" stroke="none" 
	d="
M276.750000,1.000000 
	C283.185120,1.984526 289.366608,2.992470 295.555939,3.949875 
	C345.164429,11.623660 388.716675,32.222851 426.438690,65.264008 
	C427.057922,65.806435 427.574310,66.466316 427.852844,67.537003 
	C414.385193,71.005463 401.203400,74.008308 388.134918,76.641754 
	C387.300110,75.063118 386.574646,73.537544 385.371490,72.690659 
	C349.881927,47.710091 310.303162,34.676682 266.610596,32.278954 
	C258.843597,32.390121 251.536530,32.540520 244.235504,32.838787 
	C213.359619,34.100151 184.277023,42.180298 156.683868,55.924034 
	C151.822144,58.345585 146.878708,60.603096 141.973007,62.936367 
	C146.621460,58.574730 150.720627,53.334229 156.023636,50.019920 
	C170.630966,40.890583 185.320801,31.709000 200.755753,24.132545 
	C222.498093,13.460047 245.704681,6.881227 269.842957,3.874053 
	C271.849518,3.624077 273.735931,2.409901 275.839081,1.321854 
	C276.000000,1.000000 276.500000,1.000000 276.750000,1.000000 
z"/>
<path fill="#EFEFEF" opacity="1.000000" stroke="none" 
	d="
M267.073334,32.386208 
	C310.303162,34.676682 349.881927,47.710091 385.371490,72.690659 
	C386.574646,73.537544 387.300110,75.063118 387.748444,76.676285 
	C385.185699,77.713127 383.103973,78.291000 381.062500,78.987030 
	C336.701599,94.111801 303.368408,121.541092 285.923492,165.894485 
	C281.204468,177.892517 278.486969,190.706924 275.358704,203.273041 
	C274.831726,205.389893 276.338898,208.696533 277.992767,210.396164 
	C278.872681,211.300446 282.817749,210.708069 284.112793,209.468277 
	C290.103760,203.732956 295.650360,197.533463 301.356201,191.500275 
	C309.257996,185.794662 316.994659,179.841156 325.100006,174.441010 
	C337.498108,166.180862 351.169830,160.794983 365.770569,157.822327 
	C367.036865,157.564484 368.386780,157.717361 370.054993,158.146698 
	C369.216919,159.866776 368.175354,161.329865 366.799377,162.335312 
	C361.438721,166.252472 355.664032,169.658005 350.598511,173.914520 
	C329.590149,191.567688 314.775055,213.978271 302.525818,238.183945 
	C282.546875,277.664429 270.492584,319.762878 261.943298,362.981415 
	C257.140076,364.921997 256.359772,364.362732 254.910980,359.036163 
	C248.413849,335.148834 242.703415,311.001343 235.065979,287.481323 
	C224.153442,253.875397 208.443283,222.529236 184.719025,195.887360 
	C178.483215,188.884659 170.842285,183.133209 163.275742,176.530014 
	C153.361099,168.172211 142.685226,162.500183 130.827408,159.201935 
	C129.034729,158.703293 126.751228,159.969208 124.694763,160.418915 
	C125.386574,162.267227 125.615501,164.544876 126.856964,165.883392 
	C130.584503,169.902283 134.892166,173.381073 138.644882,177.379013 
	C159.301834,199.385849 173.638626,225.296005 182.561646,253.822174 
	C193.435318,288.584412 203.115067,323.737061 212.569550,358.920135 
	C218.741959,381.889618 223.588989,405.215057 229.043839,428.377716 
	C231.183029,437.461212 236.676041,441.987152 245.995300,442.195801 
	C250.654022,442.300140 255.318542,442.144928 259.980438,442.107117 
	C264.958466,442.044739 269.992218,442.428284 274.901306,441.814606 
	C282.111237,440.913330 286.561066,436.428528 288.087189,429.313202 
	C291.892609,411.570923 295.484894,393.782288 299.383331,376.060791 
	C308.576141,334.271759 317.349640,292.374451 331.232452,251.779526 
	C334.135468,243.290848 339.642365,238.590500 348.616791,237.635178 
	C364.399719,235.955093 379.845367,232.859451 394.595123,226.670990 
	C416.813690,217.348846 430.176971,200.007904 438.982880,178.418976 
	C442.378113,170.095001 445.716248,161.747711 449.121857,153.427994 
	C449.973480,151.347473 450.985535,149.332626 452.705383,147.376740 
	C485.636444,208.375259 492.575623,272.012970 466.796173,336.421173 
	C431.164154,425.445312 363.720978,473.441589 267.244843,481.120972 
	C260.621277,479.720245 254.732941,478.753662 248.921936,477.443939 
	C232.021774,473.634735 215.187363,469.449310 199.762741,461.285614 
	C186.870956,454.462463 173.418945,448.226624 161.797272,439.599304 
	C148.559708,429.772461 136.299698,418.310364 125.001335,406.259094 
	C104.529167,384.422852 90.043427,358.767517 80.347488,330.371246 
	C70.094376,300.343262 66.047424,269.629791 68.918121,238.010391 
	C71.295288,211.827118 77.499924,186.779602 88.668381,162.788147 
	C101.579292,135.053635 119.264343,111.111816 141.869415,90.687859 
	C148.275604,84.899788 154.368698,78.482903 161.609131,73.961960 
	C174.789413,65.732162 188.378220,57.977074 202.428345,51.366749 
	C218.843384,43.643780 236.202377,38.332504 254.324493,35.827042 
	C258.649994,35.229023 262.827667,33.561707 267.073334,32.386208 
z"/>
<path fill="#DBDBDB" opacity="1.000000" stroke="none" 
	d="
M266.610596,32.278954 
	C262.827667,33.561707 258.649994,35.229023 254.324493,35.827042 
	C236.202377,38.332504 218.843384,43.643780 202.428345,51.366749 
	C188.378220,57.977074 174.789413,65.732162 161.609131,73.961960 
	C154.368698,78.482903 148.275604,84.899788 141.869415,90.687859 
	C119.264343,111.111816 101.579292,135.053635 88.668381,162.788147 
	C77.499924,186.779602 71.295288,211.827118 68.918121,238.010391 
	C66.047424,269.629791 70.094376,300.343262 80.347488,330.371246 
	C90.043427,358.767517 104.529167,384.422852 125.001335,406.259094 
	C136.299698,418.310364 148.559708,429.772461 161.797272,439.599304 
	C173.418945,448.226624 186.870956,454.462463 199.762741,461.285614 
	C215.187363,469.449310 232.021774,473.634735 248.921936,477.443939 
	C254.732941,478.753662 260.621277,479.720245 266.785156,481.109070 
	C255.684814,481.087402 244.210831,481.462860 232.874298,480.388275 
	C199.444977,477.219635 168.620438,465.897522 139.319946,449.113251 
	C126.241440,438.897430 112.832825,429.459930 100.933746,418.398590 
	C75.646729,394.891876 57.649830,366.321960 45.736012,333.907013 
	C37.091282,310.386536 32.581654,286.053375 32.241978,261.073334 
	C31.640797,216.861115 42.780830,175.781952 66.221054,138.120636 
	C83.563927,110.255859 106.221573,87.621735 133.204956,69.150764 
	C134.989197,67.929382 136.677185,66.567383 138.988663,65.042236 
	C140.127594,64.263321 140.687820,63.712963 141.248032,63.162601 
	C141.248032,63.162601 141.623535,63.091248 141.798279,63.013809 
	C146.878708,60.603096 151.822144,58.345585 156.683868,55.924034 
	C184.277023,42.180298 213.359619,34.100151 244.235504,32.838787 
	C251.536530,32.540520 258.843597,32.390121 266.610596,32.278954 
z"/>
<path fill="#888888" opacity="1.000000" stroke="none" 
	d="
M259.901367,441.770813 
	C255.318542,442.144928 250.654022,442.300140 245.995300,442.195801 
	C236.676041,441.987152 231.183029,437.461212 229.043839,428.377716 
	C223.588989,405.215057 218.741959,381.889618 212.569550,358.920135 
	C203.115067,323.737061 193.435318,288.584412 182.561646,253.822174 
	C173.638626,225.296005 159.301834,199.385849 138.644882,177.379013 
	C134.892166,173.381073 130.584503,169.902283 126.856964,165.883392 
	C125.615501,164.544876 125.386574,162.267227 124.694763,160.418915 
	C126.751228,159.969208 129.034729,158.703293 130.827408,159.201935 
	C142.685226,162.500183 153.361099,168.172211 162.921371,176.501801 
	C164.163620,178.733231 165.000900,180.843689 166.245972,182.677277 
	C173.869873,193.905014 182.214294,204.697327 189.124649,216.343185 
	C199.514587,233.853210 205.717758,253.204346 211.518341,272.642670 
	C216.498016,289.330109 221.975067,305.877991 226.570129,322.668762 
	C230.892075,338.461487 234.351654,354.490356 238.184540,370.416779 
	C242.948425,390.211761 247.461121,410.072937 252.661102,429.752594 
	C253.778641,433.981995 257.370331,437.557678 259.901367,441.770813 
z"/>
<path fill="#888888" opacity="1.000000" stroke="none" 
	d="
M262.291626,363.094910 
	C270.492584,319.762878 282.546875,277.664429 302.525818,238.183945 
	C314.775055,213.978271 329.590149,191.567688 350.598511,173.914520 
	C355.664032,169.658005 361.438721,166.252472 366.799377,162.335312 
	C368.175354,161.329865 369.216919,159.866776 370.420654,158.218674 
	C376.669525,156.619598 382.869812,154.927795 389.166473,154.411591 
	C392.462982,154.141342 393.584442,158.138046 390.849365,160.511551 
	C387.505646,163.413284 383.609802,165.675659 379.973572,168.243988 
	C365.580750,178.409897 353.603394,191.011765 343.009644,204.996658 
	C327.044403,226.072464 315.197327,249.464035 305.701050,273.962799 
	C300.201019,288.151978 296.176819,302.941193 292.001099,317.606323 
	C289.004517,328.130249 286.897705,338.905823 284.318146,349.550751 
	C281.993469,359.144073 277.973877,362.440552 268.069336,363.040863 
	C266.262787,363.150391 264.449890,363.155273 262.291626,363.094910 
z"/>
<path fill="#888888" opacity="1.000000" stroke="none" 
	d="
M301.308746,191.075439 
	C295.650360,197.533463 290.103760,203.732956 284.112793,209.468277 
	C282.817749,210.708069 278.872681,211.300446 277.992767,210.396164 
	C276.338898,208.696533 274.831726,205.389893 275.358704,203.273041 
	C278.486969,190.706924 281.204468,177.892517 285.923492,165.894485 
	C303.368408,121.541092 336.701599,94.111801 381.062500,78.987030 
	C383.103973,78.291000 385.185699,77.713127 387.635162,77.045685 
	C401.203400,74.008308 414.385193,71.005463 427.975586,67.851280 
	C435.175049,67.425949 441.964233,67.076050 448.757782,66.930977 
	C450.471344,66.894402 452.198914,67.512810 453.852356,68.315315 
	C429.699707,70.803650 406.843994,77.161438 384.828400,87.179626 
	C370.347443,93.769180 357.070312,102.078224 345.350647,112.641525 
	C335.365356,121.641579 327.081268,132.220398 319.979889,143.743729 
	C311.793701,157.027359 306.103912,171.277817 302.088562,186.270477 
	C301.705231,187.701721 301.532043,189.189224 301.308746,191.075439 
z"/>
<path fill="#919191" opacity="1.000000" stroke="none" 
	d="
M456.934052,66.776703 
	C460.306915,66.617775 463.679779,66.458847 467.489136,66.381737 
	C464.550171,67.276344 461.174652,68.089134 457.369843,68.532944 
	C456.938354,67.701546 456.936218,67.239128 456.934052,66.776703 
z"/>
<path fill="#888888" opacity="1.000000" stroke="none" 
	d="
M456.488281,66.747894 
	C456.936218,67.239128 456.938354,67.701546 456.930847,68.507797 
	C456.305420,68.853455 455.689636,68.855278 454.602356,68.820236 
	C454.768036,68.095284 455.405273,67.407188 456.488281,66.747894 
z"/>
<path fill="#9F9F9F" opacity="1.000000" stroke="none" 
	d="
M140.935593,63.191658 
	C140.687820,63.712963 140.127594,64.263321 139.263519,64.851562 
	C139.514160,64.333206 140.068649,63.776958 140.935593,63.191658 
z"/>
</svg>