<svg version="1.1" id="Layer_1" xmlns="http://www.w3.org/2000/svg" xmlns:xlink="http://www.w3.org/1999/xlink" x="0px" y="0px"
	 width="100%" viewBox="0 0 512 512" enable-background="new 0 0 512 512" xml:space="preserve">
<path fill="#6CCB47" opacity="1.000000" stroke="none" 
	d="
M513.000000,236.000000 
	C513.000000,251.354233 513.000000,266.708466 512.620972,282.645569 
	C511.868622,284.648956 511.320312,286.048462 511.147400,287.492920 
	C505.685242,333.123840 488.965759,374.221100 461.466461,410.978821 
	C443.031250,435.620758 420.536987,455.910553 394.671539,472.913086 
	C393.966827,473.312195 393.549316,473.680908 392.895203,474.119202 
	C392.349243,474.327881 392.102722,474.540039 391.608887,474.881348 
	C390.998566,475.220245 390.698395,475.503021 390.273773,475.799194 
	C390.149292,475.812592 389.998505,476.012482 389.669525,476.068268 
	C387.888214,477.078888 386.435913,478.033691 384.991455,478.994873 
	C384.999359,479.001221 384.990936,478.984711 384.641876,479.025513 
	C381.680573,480.608887 379.068298,482.151489 376.312866,483.720184 
	C376.169708,483.746277 375.983978,483.970398 375.633972,484.011780 
	C373.027649,485.280487 370.771332,486.507874 368.362366,487.755981 
	C368.209717,487.776703 367.988098,487.990753 367.652649,488.008820 
	C366.349426,488.570068 365.381653,489.113251 364.278748,489.673950 
	C364.143585,489.691467 363.961487,489.894257 363.619324,489.909485 
	C362.078613,490.548920 360.880096,491.173187 359.494751,491.824310 
	C359.307922,491.851196 359.003387,492.074219 358.654419,492.095276 
	C356.430481,493.020355 354.555481,493.924316 352.496887,494.835876 
	C352.313293,494.843475 351.993439,495.024506 351.673096,495.017151 
	C351.001160,495.236694 350.649597,495.463562 350.066772,495.698853 
	C349.528137,495.780029 349.256805,495.921692 348.647400,496.154724 
	C342.084808,498.399963 335.896301,500.622803 329.416260,502.851196 
	C328.750549,502.958008 328.376373,503.059296 327.614258,503.151367 
	C317.492401,505.424835 307.758545,507.707520 297.689941,509.966492 
	C296.917145,510.028107 296.479126,510.113403 295.644958,510.137390 
	C293.171173,510.434937 291.093567,510.793793 288.657135,511.122925 
	C286.865540,511.728790 285.432770,512.364380 284.000000,513.000000 
	C282.933319,513.000000 281.866669,513.000000 280.277710,512.705322 
	C278.836975,512.607056 277.918488,512.803528 277.000000,513.000000 
	C277.000000,513.000000 276.500000,513.000000 276.079346,512.685059 
	C274.046417,511.629700 272.486603,510.405121 270.813660,510.223755 
	C254.177643,508.420105 238.188599,504.074341 222.387085,498.708618 
	C192.564270,488.581604 166.022324,472.752625 141.711060,452.969269 
	C140.520447,452.000427 139.912354,450.315643 139.388931,448.982147 
	C166.730820,464.871613 195.494095,475.971558 226.704254,479.466827 
	C240.661682,481.029907 254.837601,480.641785 269.376221,481.207642 
	C274.464325,480.871979 279.115662,480.654449 283.713013,480.035767 
	C356.925446,470.183228 413.695251,433.949493 450.662354,370.290741 
	C491.537079,299.902893 492.130463,226.954361 456.656097,153.737686 
	C455.546051,151.446640 454.009460,149.362259 452.114838,146.273727 
	C450.779541,149.616058 449.926666,151.916199 448.951813,154.163437 
	C443.654633,166.374588 438.572113,178.686768 432.950439,190.747314 
	C425.382843,206.982437 412.802063,218.228607 396.656616,225.680130 
	C381.497253,232.676544 365.417664,236.049362 348.927399,237.619476 
	C339.201385,238.545532 333.841156,243.877304 330.829834,252.900345 
	C318.155670,290.876862 309.553864,329.887543 301.001129,368.911377 
	C296.760834,388.258514 292.809052,407.669159 288.779053,427.061951 
	C287.241302,434.461700 283.842529,440.433990 275.834595,441.736206 
	C270.987518,442.524414 265.936432,442.058258 260.799469,441.865997 
	C256.622223,437.142242 252.829361,432.850128 251.486740,426.514526 
	C247.832352,409.270203 243.887070,392.070160 239.423508,375.018402 
	C230.833603,342.203217 222.121246,309.413330 212.876724,276.778107 
	C202.780792,241.137207 188.821472,207.320786 163.324753,179.446152 
	C161.130463,177.047211 159.115906,174.483887 157.361755,172.040619 
	C166.702759,179.945770 176.528946,187.049072 184.541336,195.811020 
	C208.438431,221.943726 223.872589,253.189362 234.819183,286.455231 
	C242.659927,310.282654 248.353409,334.819733 254.885391,359.072388 
	C256.333588,364.449432 257.089935,365.069550 262.263733,362.944458 
	C278.353882,363.384979 282.198486,360.388245 285.034729,345.226166 
	C289.639069,320.612274 296.743347,296.629578 305.912262,273.451019 
	C312.676270,256.351990 321.387512,239.918579 330.385986,223.834717 
	C341.440186,204.076523 356.117706,187.033844 373.825043,172.799149 
	C378.609802,168.952713 384.025085,165.897781 388.911041,162.165482 
	C390.279694,161.119965 391.234894,159.023346 391.505066,157.273804 
	C391.632111,156.451111 389.514252,154.325623 388.708527,154.467331 
	C382.657196,155.531479 376.679382,157.013947 370.272705,158.209473 
	C367.919739,158.100403 365.793884,157.650314 364.054871,158.275803 
	C353.458099,162.087280 342.350220,165.049591 332.569336,170.406677 
	C321.442383,176.501038 311.526825,184.807144 301.069275,191.745697 
	C303.179810,184.001358 304.871185,176.502686 307.510742,169.354156 
	C316.564911,144.833710 330.853729,123.884544 351.359131,107.457382 
	C380.197968,84.354156 413.908325,73.626663 449.964386,68.887665 
	C453.363068,68.440964 456.671936,67.310913 460.467438,66.352066 
	C472.207642,66.751976 483.517578,67.111366 494.786407,67.994812 
	C497.158325,68.180763 499.379456,70.290436 501.670044,71.513687 
	C500.235168,73.550041 499.216003,76.178459 497.297272,77.525665 
	C485.770660,85.618782 476.727905,95.913887 469.614380,107.945480 
	C468.770416,109.372925 468.353149,111.933624 469.062012,113.263054 
	C476.879456,127.923958 484.959106,142.445038 492.972900,157.350769 
	C493.579559,158.921967 494.181122,160.146393 494.800476,161.543823 
	C494.818268,161.716843 495.003632,162.011230 494.981873,162.326752 
	C495.334076,163.377884 495.708069,164.113525 496.064301,164.881912 
	C496.046570,164.914673 496.112549,164.949326 496.127319,165.323624 
	C497.438263,169.097092 498.734375,172.496246 500.011322,175.928726 
	C499.992126,175.962036 500.058838,176.000275 500.060242,176.373901 
	C500.975769,179.275589 501.889923,181.803665 502.820862,184.617188 
	C502.939178,185.269348 503.040649,185.636063 503.124939,186.379501 
	C503.820892,189.166718 504.534088,191.577179 505.295471,194.383469 
	C505.545227,195.270187 505.746857,195.761078 505.872498,196.356232 
	C505.775330,196.667252 505.865021,196.798111 506.040436,196.889618 
	C506.015228,196.926208 506.088623,196.976303 506.059448,197.290283 
	C506.224609,197.967728 506.418945,198.331207 506.591705,198.924896 
	C506.612640,199.466248 506.719818,199.753235 506.854980,200.440674 
	C507.632538,204.901871 508.446838,208.938461 509.268127,213.316589 
	C509.429535,214.083481 509.583984,214.508820 509.677673,215.311737 
	C510.099121,218.454285 510.581360,221.219223 511.039429,224.313782 
	C511.087616,225.077072 511.159973,225.510757 511.156067,226.365784 
	C511.719849,229.858078 512.359924,232.929031 513.000000,236.000000 
z"/>
<path fill="#4FC225" opacity="1.000000" stroke="none" 
	d="
M139.033020,448.964233 
	C139.912354,450.315643 140.520447,452.000427 141.711060,452.969269 
	C166.022324,472.752625 192.564270,488.581604 222.387085,498.708618 
	C238.188599,504.074341 254.177643,508.420105 270.813660,510.223755 
	C272.486603,510.405121 274.046417,511.629700 275.829346,512.685059 
	C261.312439,513.000000 246.624878,513.000000 231.327728,512.629028 
	C228.937592,511.871033 227.163727,511.449463 225.375381,511.102417 
	C213.635605,508.824005 201.692047,507.299469 190.184723,504.169525 
	C133.047058,488.628571 86.748917,456.801941 51.287479,409.497681 
	C27.240364,377.419708 11.693256,341.478821 4.867524,301.876556 
	C3.553935,294.255249 2.287946,286.625732 1.000000,279.000000 
	C1.000000,262.645782 1.000000,246.291550 1.384416,229.324097 
	C4.435220,215.743027 6.401883,202.583710 9.888382,189.840225 
	C25.495304,132.795364 57.313011,86.558571 104.612953,51.191540 
	C136.822556,27.107838 172.872711,11.515054 212.645325,4.819112 
	C220.099915,3.564091 227.548599,2.273939 235.000000,1.000000 
	C248.354233,1.000000 261.708466,1.000000 275.352173,1.311121 
	C269.713531,2.930254 263.802399,4.321788 257.854553,5.532839 
	C216.590607,13.934646 179.241287,30.781250 146.390259,57.268818 
	C142.709961,60.236214 139.462524,63.740467 135.822861,67.272903 
	C132.651596,69.676743 129.618866,71.733406 126.699806,73.940376 
	C56.575760,126.957870 25.028408,197.294006 34.252247,284.723419 
	C39.879543,338.062531 63.689392,383.230530 102.689529,420.025146 
	C113.055275,429.804718 124.869995,438.048431 136.122360,447.310699 
	C137.160980,448.070618 138.096695,448.517181 139.024246,448.976898 
	C139.016068,448.990082 139.033020,448.964233 139.033020,448.964233 
z"/>
<path fill="#F6F7F6" opacity="1.000000" stroke="none" 
	d="
M1.000000,279.468658 
	C2.287946,286.625732 3.553935,294.255249 4.867524,301.876556 
	C11.693256,341.478821 27.240364,377.419708 51.287479,409.497681 
	C86.748917,456.801941 133.047058,488.628571 190.184723,504.169525 
	C201.692047,507.299469 213.635605,508.824005 225.375381,511.102417 
	C227.163727,511.449463 228.937592,511.871033 230.859070,512.629028 
	C154.405670,513.000000 77.811333,513.000000 1.000000,513.000000 
	C1.000000,435.312561 1.000000,357.624939 1.000000,279.468658 
z"/>
<path fill="#F6F7F6" opacity="1.000000" stroke="none" 
	d="
M234.531342,1.000000 
	C227.548599,2.273939 220.099915,3.564091 212.645325,4.819112 
	C172.872711,11.515054 136.822556,27.107838 104.612953,51.191540 
	C57.313011,86.558571 25.495304,132.795364 9.888382,189.840225 
	C6.401883,202.583710 4.435220,215.743027 1.384416,228.855438 
	C1.000000,153.072006 1.000000,77.144012 1.000000,1.000000 
	C78.687431,1.000000 156.375061,1.000000 234.531342,1.000000 
z"/>
<path fill="#F6F7F6" opacity="1.000000" stroke="none" 
	d="
M296.041107,510.198669 
	C296.479126,510.113403 296.917145,510.028107 297.995880,510.119141 
	C305.087708,509.439270 311.613678,508.935638 317.960297,507.587555 
	C321.463013,506.843567 324.664795,504.682709 328.002228,503.160583 
	C328.376373,503.059296 328.750549,502.958008 329.838196,502.893433 
	C337.002167,501.462646 343.878387,501.151947 349.021515,496.132355 
	C349.256805,495.921692 349.528137,495.780029 350.374451,495.654236 
	C351.273438,495.408966 351.633453,495.216736 351.993439,495.024536 
	C351.993439,495.024506 352.313293,494.843475 352.891296,494.876160 
	C355.314026,493.963959 357.158691,493.019073 359.003387,492.074219 
	C359.003387,492.074219 359.307922,491.851196 359.855316,491.855408 
	C361.588989,491.204498 362.775238,490.549377 363.961487,489.894257 
	C363.961487,489.894257 364.143585,489.691467 364.646423,489.718323 
	C366.095520,489.160370 367.041809,488.575562 367.988098,487.990753 
	C367.988098,487.990753 368.209717,487.776703 368.769287,487.797028 
	C371.547211,486.535034 373.765594,485.252716 375.983978,483.970398 
	C375.983978,483.970398 376.169708,483.746277 376.715149,483.755829 
	C379.837341,482.171814 382.414124,480.578247 384.990936,478.984680 
	C384.990936,478.984711 384.999359,479.001221 385.348816,478.993713 
	C387.131714,477.994965 388.565094,477.003723 389.998474,476.012451 
	C389.998505,476.012482 390.149292,475.812592 390.563782,475.699860 
	C391.291840,475.333160 391.605438,475.079193 391.919037,474.825226 
	C392.102722,474.540039 392.349243,474.327881 393.169128,474.060425 
	C394.106049,473.582275 394.532410,473.232483 394.958740,472.882690 
	C420.536987,455.910553 443.031250,435.620758 461.466461,410.978821 
	C488.965759,374.221100 505.685242,333.123840 511.147400,287.492920 
	C511.320312,286.048462 511.868622,284.648956 512.620972,283.114227 
	C513.000000,359.593536 513.000000,436.187103 513.000000,513.000000 
	C436.979248,513.000000 360.958282,513.000000 284.468658,513.000000 
	C285.432770,512.364380 286.865540,511.728790 288.981628,511.284454 
	C291.790314,511.050049 293.915710,510.624359 296.041107,510.198669 
z"/>
<path fill="#F6F7F5" opacity="1.000000" stroke="none" 
	d="
M509.738403,214.934143 
	C509.583984,214.508820 509.429535,214.083481 509.417633,212.965942 
	C508.670685,208.187836 507.781189,204.101944 506.891693,200.016052 
	C506.719818,199.753235 506.612640,199.466248 506.582581,198.616165 
	C506.426208,197.710251 506.257416,197.343277 506.088623,196.976303 
	C506.088623,196.976303 506.015228,196.926208 506.075653,196.783569 
	C506.136078,196.640915 505.948486,196.251968 505.948486,196.251968 
	C505.746857,195.761078 505.545227,195.270187 505.438995,194.068634 
	C504.736938,190.906235 503.939514,188.454498 503.142120,186.002762 
	C503.040649,185.636063 502.939178,185.269348 502.871582,184.202148 
	C501.956573,181.001205 501.007721,178.500732 500.058838,176.000275 
	C500.058838,176.000275 499.992126,175.962036 500.044495,175.522125 
	C498.768738,171.704575 497.440643,168.326950 496.112549,164.949326 
	C496.112549,164.949326 496.046570,164.914673 496.068909,164.567474 
	C495.728729,163.483917 495.366180,162.747574 495.003632,162.011230 
	C495.003632,162.011230 494.818268,161.716843 494.835632,161.180481 
	C494.224609,159.430740 493.596191,158.217377 492.967773,157.003998 
	C484.959106,142.445038 476.879456,127.923958 469.062012,113.263054 
	C468.353149,111.933624 468.770416,109.372925 469.614380,107.945480 
	C476.727905,95.913887 485.770660,85.618782 497.297272,77.525665 
	C499.216003,76.178459 500.235168,73.550041 501.670044,71.513687 
	C499.379456,70.290436 497.158325,68.180763 494.786407,67.994812 
	C483.517578,67.111366 472.207642,66.751976 460.031525,66.283630 
	C453.770905,66.630196 448.391144,66.899132 442.677185,67.084641 
	C441.897186,67.084145 441.451355,67.167076 440.603729,67.210358 
	C437.802429,67.492508 435.402924,67.814316 432.672150,68.048981 
	C431.896271,68.041107 431.451660,68.120384 430.686951,68.115334 
	C429.930023,67.969872 429.493225,67.908730 428.923218,67.544342 
	C388.042755,30.840057 340.715668,8.992170 286.311798,2.733249 
	C284.827698,2.562512 283.435211,1.595626 282.000000,1.000000 
	C358.926056,1.000000 435.852142,1.000000 513.000000,1.000000 
	C513.000000,75.687416 513.000000,150.375046 512.705200,225.525757 
	C512.017700,225.974030 511.625031,225.959229 511.232330,225.944427 
	C511.159973,225.510757 511.087616,225.077072 511.213989,223.994568 
	C510.854584,220.541870 510.296509,217.738007 509.738403,214.934143 
z"/>
<path fill="#6DCA48" opacity="1.000000" stroke="none" 
	d="
M281.571533,1.000000 
	C283.435211,1.595626 284.827698,2.562512 286.311798,2.733249 
	C340.715668,8.992170 388.042755,30.840057 428.591858,67.772339 
	C415.134979,71.113831 401.876282,73.924088 388.654236,76.401947 
	C387.901215,75.111633 387.275513,73.921684 386.297394,73.230324 
	C369.520844,61.372097 351.458282,51.969490 332.080414,45.127972 
	C311.638092,37.910633 290.604034,33.700966 268.566742,32.663605 
	C232.722076,31.008818 198.562592,36.917152 166.120972,51.529602 
	C155.847595,56.156971 146.036835,61.811363 136.014359,66.995758 
	C139.462524,63.740467 142.709961,60.236214 146.390259,57.268818 
	C179.241287,30.781250 216.590607,13.934646 257.854553,5.532839 
	C263.802399,4.321788 269.713531,2.930254 275.820801,1.311121 
	C277.714355,1.000000 279.428711,1.000000 281.571533,1.000000 
z"/>
<path fill="#DCFAD1" opacity="1.000000" stroke="none" 
	d="
M511.156067,226.365784 
	C511.625031,225.959229 512.017700,225.974030 512.705200,225.994415 
	C513.000000,229.030594 513.000000,232.061188 513.000000,235.545898 
	C512.359924,232.929031 511.719849,229.858078 511.156067,226.365784 
z"/>
<path fill="#C5FFAD" opacity="1.000000" stroke="none" 
	d="
M277.375000,513.000000 
	C277.918488,512.803528 278.836975,512.607056 279.877747,512.705322 
	C279.250000,513.000000 278.500000,513.000000 277.375000,513.000000 
z"/>
<path fill="#DBEDFE" opacity="1.000000" stroke="none" 
	d="
M268.921051,32.845978 
	C290.604034,33.700966 311.638092,37.910633 332.080414,45.127972 
	C351.458282,51.969490 369.520844,61.372097 386.297394,73.230324 
	C387.275513,73.921684 387.901215,75.111633 388.281128,76.456161 
	C385.173279,77.673630 382.445007,78.418045 379.781555,79.348083 
	C320.700195,99.978264 286.269928,141.507675 275.224274,202.812012 
	C274.689331,205.781036 274.259766,209.046463 277.734314,210.659225 
	C281.177307,212.257355 283.672455,210.449005 286.005768,207.927307 
	C290.945526,202.588760 296.048615,197.401306 301.084717,192.151871 
	C311.526825,184.807144 321.442383,176.501038 332.569336,170.406677 
	C342.350220,165.049591 353.458099,162.087280 364.054871,158.275803 
	C365.793884,157.650314 367.919739,158.100403 370.220734,158.523590 
	C369.430603,160.093155 368.412628,161.378769 367.117767,162.255371 
	C363.844666,164.471191 360.304382,166.308487 357.122864,168.640793 
	C338.394806,182.369980 324.474213,200.315125 312.565948,219.970154 
	C294.395721,249.960770 282.211609,282.456390 273.024750,316.118317 
	C269.104431,330.482941 266.142242,345.109039 262.528076,359.856750 
	C262.250824,360.729523 262.190125,361.361847 261.999756,362.214294 
	C261.844513,362.602814 261.818878,362.771210 261.793274,362.939575 
	C257.089935,365.069550 256.333588,364.449432 254.885391,359.072388 
	C248.353409,334.819733 242.659927,310.282654 234.819183,286.455231 
	C223.872589,253.189362 208.438431,221.943726 184.541336,195.811020 
	C176.528946,187.049072 166.702759,179.945770 157.155991,171.773529 
	C147.630981,167.232727 138.711273,162.874634 129.615555,158.921509 
	C128.363449,158.377319 125.730225,159.393753 124.710144,160.548141 
	C124.111961,161.225067 125.316429,163.654099 125.955345,165.193146 
	C126.244446,165.889542 127.123138,166.346558 127.747017,166.897827 
	C144.042648,181.297012 156.799606,198.445694 166.993759,217.562546 
	C181.988235,245.681366 190.651703,276.144348 198.745789,306.659546 
	C209.524673,347.296539 219.048615,388.266022 229.164658,429.079559 
	C230.597839,434.861786 233.625854,439.430481 239.974213,441.410919 
	C240.782593,441.731079 241.386993,441.811920 242.447632,442.013184 
	C248.928268,442.140961 254.952637,442.148346 260.977020,442.155701 
	C265.936432,442.058258 270.987518,442.524414 275.834595,441.736206 
	C283.842529,440.433990 287.241302,434.461700 288.779053,427.061951 
	C292.809052,407.669159 296.760834,388.258514 301.001129,368.911377 
	C309.553864,329.887543 318.155670,290.876862 330.829834,252.900345 
	C333.841156,243.877304 339.201385,238.545532 348.927399,237.619476 
	C365.417664,236.049362 381.497253,232.676544 396.656616,225.680130 
	C412.802063,218.228607 425.382843,206.982437 432.950439,190.747314 
	C438.572113,178.686768 443.654633,166.374588 448.951813,154.163437 
	C449.926666,151.916199 450.779541,149.616058 452.114838,146.273727 
	C454.009460,149.362259 455.546051,151.446640 456.656097,153.737686 
	C492.130463,226.954361 491.537079,299.902893 450.662354,370.290741 
	C413.695251,433.949493 356.925446,470.183228 283.713013,480.035767 
	C279.115662,480.654449 274.464325,480.871979 269.063904,480.976379 
	C258.828491,478.877502 249.308487,477.340576 239.916306,475.233856 
	C199.178818,466.096161 164.327042,445.989502 134.709839,416.972717 
	C115.812180,398.458160 100.785019,376.996002 89.319336,352.962769 
	C76.578026,326.255707 69.567352,298.175842 68.140892,268.811340 
	C66.556419,236.193756 71.405479,204.528046 83.688042,173.991516 
	C97.773003,138.973877 119.066879,109.213280 147.820053,85.049294 
	C180.265732,57.782127 217.574509,40.692837 259.747223,34.717564 
	C262.831635,34.280548 265.864319,33.478382 268.921051,32.845978 
z"/>
<path fill="#B5DCFB" opacity="1.000000" stroke="none" 
	d="
M268.566742,32.663605 
	C265.864319,33.478382 262.831635,34.280548 259.747223,34.717564 
	C217.574509,40.692837 180.265732,57.782127 147.820053,85.049294 
	C119.066879,109.213280 97.773003,138.973877 83.688042,173.991516 
	C71.405479,204.528046 66.556419,236.193756 68.140892,268.811340 
	C69.567352,298.175842 76.578026,326.255707 89.319336,352.962769 
	C100.785019,376.996002 115.812180,398.458160 134.709839,416.972717 
	C164.327042,445.989502 199.178818,466.096161 239.916306,475.233856 
	C249.308487,477.340576 258.828491,478.877502 268.602020,480.907898 
	C254.837601,480.641785 240.661682,481.029907 226.704254,479.466827 
	C195.494095,475.971558 166.730820,464.871613 139.388931,448.982147 
	C139.033020,448.964233 139.016068,448.990082 138.906372,448.679871 
	C137.870926,447.912231 136.945175,447.454803 136.019440,446.997375 
	C124.869995,438.048431 113.055275,429.804718 102.689529,420.025146 
	C63.689392,383.230530 39.879543,338.062531 34.252247,284.723419 
	C25.028408,197.294006 56.575760,126.957870 126.699806,73.940376 
	C129.618866,71.733406 132.651596,69.676743 135.822861,67.272903 
	C146.036835,61.811363 155.847595,56.156971 166.120972,51.529602 
	C198.562592,36.917152 232.722076,31.008818 268.566742,32.663605 
z"/>
<path fill="#4FC225" opacity="1.000000" stroke="none" 
	d="
M239.770218,441.171570 
	C233.625854,439.430481 230.597839,434.861786 229.164658,429.079559 
	C219.048615,388.266022 209.524673,347.296539 198.745789,306.659546 
	C190.651703,276.144348 181.988235,245.681366 166.993759,217.562546 
	C156.799606,198.445694 144.042648,181.297012 127.747017,166.897827 
	C127.123138,166.346558 126.244446,165.889542 125.955345,165.193146 
	C125.316429,163.654099 124.111961,161.225067 124.710144,160.548141 
	C125.730225,159.393753 128.363449,158.377319 129.615555,158.921509 
	C138.711273,162.874634 147.630981,167.232727 156.812103,171.729828 
	C159.115906,174.483887 161.130463,177.047211 163.324753,179.446152 
	C188.821472,207.320786 202.780792,241.137207 212.876724,276.778107 
	C222.121246,309.413330 230.833603,342.203217 239.423508,375.018402 
	C243.887070,392.070160 247.832352,409.270203 251.486740,426.514526 
	C252.829361,432.850128 256.622223,437.142242 260.799469,441.865997 
	C254.952637,442.148346 248.928268,442.140961 242.206985,441.827972 
	C240.930130,441.405426 240.350174,441.288483 239.770218,441.171570 
z"/>
<path fill="#4FC225" opacity="1.000000" stroke="none" 
	d="
M262.744629,359.616333 
	C266.142242,345.109039 269.104431,330.482941 273.024750,316.118317 
	C282.211609,282.456390 294.395721,249.960770 312.565948,219.970154 
	C324.474213,200.315125 338.394806,182.369980 357.122864,168.640793 
	C360.304382,166.308487 363.844666,164.471191 367.117767,162.255371 
	C368.412628,161.378769 369.430603,160.093155 370.626617,158.679657 
	C376.679382,157.013947 382.657196,155.531479 388.708527,154.467331 
	C389.514252,154.325623 391.632111,156.451111 391.505066,157.273804 
	C391.234894,159.023346 390.279694,161.119965 388.911041,162.165482 
	C384.025085,165.897781 378.609802,168.952713 373.825043,172.799149 
	C356.117706,187.033844 341.440186,204.076523 330.385986,223.834717 
	C321.387512,239.918579 312.676270,256.351990 305.912262,273.451019 
	C296.743347,296.629578 289.639069,320.612274 285.034729,345.226166 
	C282.198486,360.388245 278.353882,363.384979 262.263733,362.944458 
	C261.818878,362.771210 261.844513,362.602814 262.195587,361.959229 
	C262.595551,360.861450 262.670105,360.238892 262.744629,359.616333 
z"/>
<path fill="#4FC226" opacity="1.000000" stroke="none" 
	d="
M301.069275,191.745697 
	C296.048615,197.401306 290.945526,202.588760 286.005768,207.927307 
	C283.672455,210.449005 281.177307,212.257355 277.734314,210.659225 
	C274.259766,209.046463 274.689331,205.781036 275.224274,202.812012 
	C286.269928,141.507675 320.700195,99.978264 379.781555,79.348083 
	C382.445007,78.418045 385.173279,77.673630 388.244476,76.788559 
	C401.876282,73.924088 415.134979,71.113831 428.725067,68.075584 
	C429.493225,67.908730 429.930023,67.969872 430.867371,68.247147 
	C431.913147,68.354233 432.458282,68.245186 433.003448,68.136124 
	C435.402924,67.814316 437.802429,67.492508 440.787109,67.339333 
	C441.918671,67.394661 442.465027,67.281357 443.011353,67.168060 
	C448.391144,66.899132 453.770905,66.630196 459.586609,66.429688 
	C456.671936,67.310913 453.363068,68.440964 449.964386,68.887665 
	C413.908325,73.626663 380.197968,84.354156 351.359131,107.457382 
	C330.853729,123.884544 316.564911,144.833710 307.510742,169.354156 
	C304.871185,176.502686 303.179810,184.001358 301.069275,191.745697 
z"/>
<path fill="#E1F9D7" opacity="1.000000" stroke="none" 
	d="
M327.614258,503.151367 
	C324.664795,504.682709 321.463013,506.843567 317.960297,507.587555 
	C311.613678,508.935638 305.087708,509.439270 298.330627,510.142822 
	C307.758545,507.707520 317.492401,505.424835 327.614258,503.151367 
z"/>
<path fill="#E1F9D7" opacity="1.000000" stroke="none" 
	d="
M348.647400,496.154724 
	C343.878387,501.151947 337.002167,501.462646 330.129761,502.887939 
	C335.896301,500.622803 342.084808,498.399963 348.647400,496.154724 
z"/>
<path fill="#DCFAD1" opacity="1.000000" stroke="none" 
	d="
M506.854980,200.440674 
	C507.781189,204.101944 508.670685,208.187836 509.410645,212.624390 
	C508.446838,208.938461 507.632538,204.901871 506.854980,200.440674 
z"/>
<path fill="#DCFAD1" opacity="1.000000" stroke="none" 
	d="
M496.127319,165.323624 
	C497.440643,168.326950 498.768738,171.704575 500.063660,175.488800 
	C498.734375,172.496246 497.438263,169.097092 496.127319,165.323624 
z"/>
<path fill="#DCFAD1" opacity="1.000000" stroke="none" 
	d="
M509.677673,215.311737 
	C510.296509,217.738007 510.854584,220.541870 511.238129,223.664948 
	C510.581360,221.219223 510.099121,218.454285 509.677673,215.311737 
z"/>
<path fill="#E1F9D7" opacity="1.000000" stroke="none" 
	d="
M384.641876,479.025513 
	C382.414124,480.578247 379.837341,482.171814 376.858307,483.729736 
	C379.068298,482.151489 381.680573,480.608887 384.641876,479.025513 
z"/>
<path fill="#E1F9D7" opacity="1.000000" stroke="none" 
	d="
M375.633972,484.011780 
	C373.765594,485.252716 371.547211,486.535034 368.921936,487.776306 
	C370.771332,486.507874 373.027649,485.280487 375.633972,484.011780 
z"/>
<path fill="#DCFAD1" opacity="1.000000" stroke="none" 
	d="
M503.124939,186.379501 
	C503.939514,188.454498 504.736938,190.906235 505.390808,193.672821 
	C504.534088,191.577179 503.820892,189.166718 503.124939,186.379501 
z"/>
<path fill="#DCFAD1" opacity="1.000000" stroke="none" 
	d="
M500.060242,176.373886 
	C501.007721,178.500732 501.956573,181.001205 502.854767,183.916687 
	C501.889923,181.803665 500.975769,179.275589 500.060242,176.373886 
z"/>
<path fill="#E1F9D7" opacity="1.000000" stroke="none" 
	d="
M295.644958,510.137360 
	C293.915710,510.624359 291.790314,511.050049 289.340454,511.314209 
	C291.093567,510.793793 293.171173,510.434937 295.644958,510.137360 
z"/>
<path fill="#E1F9D7" opacity="1.000000" stroke="none" 
	d="
M358.654419,492.095276 
	C357.158691,493.019073 355.314026,493.963959 353.074890,494.868561 
	C354.555481,493.924316 356.430481,493.020355 358.654419,492.095276 
z"/>
<path fill="#E1F9D7" opacity="1.000000" stroke="none" 
	d="
M389.669495,476.068237 
	C388.565094,477.003723 387.131714,477.994965 385.340942,478.987366 
	C386.435913,478.033691 387.888214,477.078888 389.669495,476.068237 
z"/>
<path fill="#DCFAD1" opacity="1.000000" stroke="none" 
	d="
M492.972900,157.350769 
	C493.596191,158.217377 494.224609,159.430740 494.817841,161.007446 
	C494.181122,160.146393 493.579559,158.921967 492.972900,157.350769 
z"/>
<path fill="#E1F9D7" opacity="1.000000" stroke="none" 
	d="
M363.619324,489.909485 
	C362.775238,490.549377 361.588989,491.204498 360.042114,491.828522 
	C360.880096,491.173187 362.078613,490.548920 363.619324,489.909485 
z"/>
<path fill="#E1F9D7" opacity="1.000000" stroke="none" 
	d="
M367.652649,488.008820 
	C367.041809,488.575562 366.095520,489.160370 364.781555,489.700806 
	C365.381653,489.113251 366.349426,488.570068 367.652649,488.008820 
z"/>
<path fill="#DCFAD1" opacity="1.000000" stroke="none" 
	d="
M494.981873,162.326752 
	C495.366180,162.747574 495.728729,163.483917 496.086639,164.534698 
	C495.708069,164.113525 495.334076,163.377884 494.981873,162.326752 
z"/>
<path fill="#E1F9D7" opacity="1.000000" stroke="none" 
	d="
M394.671570,472.913086 
	C394.532410,473.232483 394.106049,473.582275 393.405762,473.990845 
	C393.549316,473.680908 393.966827,473.312195 394.671570,472.913086 
z"/>
<path fill="#E1F9D7" opacity="1.000000" stroke="none" 
	d="
M391.608887,474.881348 
	C391.605438,475.079193 391.291840,475.333160 390.688232,475.686462 
	C390.698395,475.503021 390.998566,475.220245 391.608887,474.881348 
z"/>
<path fill="#E1F9D7" opacity="1.000000" stroke="none" 
	d="
M351.673096,495.017181 
	C351.633453,495.216736 351.273438,495.408966 350.605713,495.645813 
	C350.649597,495.463562 351.001160,495.236694 351.673096,495.017181 
z"/>
<path fill="#DCFAD1" opacity="1.000000" stroke="none" 
	d="
M506.059448,197.290283 
	C506.257416,197.343277 506.426208,197.710251 506.604126,198.385956 
	C506.418945,198.331207 506.224609,197.967728 506.059448,197.290283 
z"/>
<path fill="#DCFAD1" opacity="1.000000" stroke="none" 
	d="
M505.872498,196.356232 
	C505.948486,196.251968 506.136078,196.640915 506.100861,196.746979 
	C505.865021,196.798111 505.775330,196.667252 505.872498,196.356232 
z"/>
<path fill="#6CCB47" opacity="1.000000" stroke="none" 
	d="
M136.122345,447.310730 
	C136.945175,447.454803 137.870926,447.912231 138.914551,448.666687 
	C138.096695,448.517181 137.160980,448.070618 136.122345,447.310730 
z"/>
<path fill="#6DCA48" opacity="1.000000" stroke="none" 
	d="
M432.672150,68.048981 
	C432.458282,68.245186 431.913147,68.354233 431.187531,68.331474 
	C431.451660,68.120384 431.896271,68.041107 432.672150,68.048981 
z"/>
<path fill="#6DCA48" opacity="1.000000" stroke="none" 
	d="
M442.677185,67.084625 
	C442.465027,67.281357 441.918671,67.394661 441.188965,67.378990 
	C441.451355,67.167076 441.897186,67.084145 442.677185,67.084625 
z"/>
<path fill="#6CCB47" opacity="1.000000" stroke="none" 
	d="
M239.974213,441.410919 
	C240.350174,441.288483 240.930130,441.405426 241.750732,441.707550 
	C241.386993,441.811920 240.782593,441.731079 239.974213,441.410919 
z"/>
<path fill="#6CCB47" opacity="1.000000" stroke="none" 
	d="
M262.528076,359.856750 
	C262.670105,360.238892 262.595551,360.861450 262.325195,361.739075 
	C262.190125,361.361847 262.250824,360.729523 262.528076,359.856750 
z"/>
</svg>