<?xml version="1.0" standalone="no"?>
<!DOCTYPE svg PUBLIC "-//W3C//DTD SVG 20010904//EN"
 "http://www.w3.org/TR/2001/REC-SVG-20010904/DTD/svg10.dtd">
<svg version="1.0" xmlns="http://www.w3.org/2000/svg"
 width="128.000000pt" height="128.000000pt" viewBox="0 0 128.000000 128.000000"
 preserveAspectRatio="xMidYMid meet">
<metadata>
Created by potrace 1.16, written by Peter Selinger 2001-2019
</metadata>
<g transform="translate(0.000000,128.000000) scale(0.100000,-0.100000)"
fill="#000000" stroke="none">
<path d="M474 1246 c-29 -29 -34 -41 -34 -80 l0 -46 -134 0 c-131 0 -134 0
-160 -27 -26 -26 -27 -29 -24 -137 l3 -111 28 -3 c24 -3 27 -7 27 -43 0 -76
30 -674 36 -708 3 -20 18 -46 36 -63 l30 -28 358 0 358 0 30 28 c18 17 33 43
36 63 6 34 36 632 36 708 0 36 3 40 28 43 l27 3 3 111 c3 108 2 111 -24 137
-26 27 -29 27 -160 27 l-134 0 0 46 c0 39 -5 51 -34 80 l-34 34 -132 0 -132 0
-34 -34z m266 -66 c11 -11 20 -29 20 -40 0 -19 -7 -20 -120 -20 -113 0 -120 1
-120 20 0 11 9 29 20 40 17 17 33 20 100 20 67 0 83 -3 100 -20z m328 -152 c7
-7 12 -34 12 -60 l0 -48 -440 0 -440 0 0 48 c0 26 5 53 12 60 17 17 839 17
856 0z m-58 -229 c0 -73 -30 -664 -35 -685 -3 -12 -15 -24 -27 -28 -30 -8
-586 -8 -616 0 -12 4 -24 16 -27 28 -5 21 -35 612 -35 685 l0 41 370 0 370 0
0 -41z"/>
<path d="M405 748 c-3 -7 -4 -141 -3 -298 l3 -285 35 0 35 0 0 295 0 295 -33
3 c-20 2 -34 -2 -37 -10z"/>
<path d="M605 748 c-3 -7 -4 -141 -3 -298 l3 -285 35 0 35 0 0 295 0 295 -33
3 c-20 2 -34 -2 -37 -10z"/>
<path d="M805 748 c-3 -7 -4 -141 -3 -298 l3 -285 35 0 35 0 0 295 0 295 -33
3 c-20 2 -34 -2 -37 -10z"/>
</g>
</svg>
