<?xml version="1.0" standalone="no"?>
<!DOCTYPE svg PUBLIC "-//W3C//DTD SVG 20010904//EN"
 "http://www.w3.org/TR/2001/REC-SVG-20010904/DTD/svg10.dtd">
<svg version="1.0" xmlns="http://www.w3.org/2000/svg"
 width="128.000000pt" height="128.000000pt" viewBox="0 0 128.000000 128.000000"
 preserveAspectRatio="xMidYMid meet">
<metadata>
Created by potrace 1.16, written by Peter Selinger 2001-2019
</metadata>
<g transform="translate(0.000000,128.000000) scale(0.100000,-0.100000)"
fill="#000000" stroke="none">
<path d="M99 1223 c-54 -33 -59 -55 -59 -253 0 -277 -5 -272 315 -268 l220 3
3 220 c4 320 9 315 -270 315 -151 0 -188 -3 -209 -17z m378 -86 c16 -15 18
-41 21 -188 l3 -170 -170 3 c-147 3 -173 5 -188 21 -15 15 -19 39 -21 150 -4
143 4 182 40 197 13 5 85 8 160 7 117 -2 140 -5 155 -20z"/>
<path d="M758 1223 c-55 -34 -59 -57 -56 -298 l3 -220 220 -3 c320 -4 315 -9
315 268 0 271 0 270 -272 270 -153 0 -187 -3 -210 -17z m379 -86 c16 -15 18
-37 18 -167 0 -130 -2 -152 -18 -167 -15 -16 -40 -18 -187 -21 l-170 -3 0 155
c0 166 7 201 42 216 13 5 85 8 160 7 117 -2 140 -5 155 -20z"/>
<path d="M99 563 c-54 -33 -59 -55 -59 -253 0 -270 0 -270 270 -270 277 0 272
-5 268 315 l-3 220 -225 2 c-194 2 -229 0 -251 -14z m399 -233 c-3 -147 -5
-172 -21 -187 -15 -16 -37 -18 -167 -18 -193 0 -184 -8 -188 168 -4 143 4 182
40 197 13 5 94 9 181 9 l158 1 -3 -170z"/>
<path d="M707 573 c-4 -3 -7 -105 -7 -226 0 -313 -5 -307 270 -307 270 0 270
0 270 270 0 275 6 270 -307 270 -121 0 -223 -3 -226 -7z m430 -96 c16 -15 18
-37 18 -167 0 -196 11 -185 -185 -185 -130 0 -152 2 -167 18 -16 15 -18 40
-21 188 l-3 170 170 -3 c148 -3 173 -5 188 -21z"/>
</g>
</svg>
