<?xml version="1.0" standalone="no"?>
<!DOCTYPE svg PUBLIC "-//W3C//DTD SVG 20010904//EN"
 "http://www.w3.org/TR/2001/REC-SVG-20010904/DTD/svg10.dtd">
<svg version="1.0" xmlns="http://www.w3.org/2000/svg"
 width="128.000000pt" height="128.000000pt" viewBox="0 0 128.000000 128.000000"
 preserveAspectRatio="xMidYMid meet">
<metadata>
Created by potrace 1.16, written by Peter Selinger 2001-2019
</metadata>
<g transform="translate(0.000000,128.000000) scale(0.100000,-0.100000)"
fill="#000000" stroke="none">
<path d="M187 1073 c-4 -3 -7 -141 -7 -305 l0 -298 460 0 460 0 -2 303 -3 302
-451 3 c-248 1 -454 -1 -457 -5z"/>
<path d="M83 335 c-46 -57 -83 -111 -83 -120 0 -13 72 -15 640 -15 568 0 640
2 640 15 0 9 -37 63 -83 120 l-82 104 -475 0 -475 0 -82 -104z"/>
</g>
</svg>
