<?xml version="1.0" standalone="no"?>
<!DOCTYPE svg PUBLIC "-//W3C//DTD SVG 20010904//EN"
 "http://www.w3.org/TR/2001/REC-SVG-20010904/DTD/svg10.dtd">
<svg version="1.0" xmlns="http://www.w3.org/2000/svg"
 width="128.000000pt" height="128.000000pt" viewBox="0 0 128.000000 128.000000"
 preserveAspectRatio="xMidYMid meet">
<metadata>
Created by potrace 1.16, written by Peter Selinger 2001-2019
</metadata>
<g transform="translate(0.000000,128.000000) scale(0.100000,-0.100000)"
fill="#000000" stroke="none">
<path d="M613 1109 l-141 -120 -139 -39 c-76 -22 -139 -40 -140 -40 -2 0 -3
-12 -3 -28 0 -24 -5 -29 -52 -42 -35 -10 -54 -21 -56 -33 -2 -10 6 -50 18 -89
l21 -70 37 7 c94 18 92 18 92 1 0 -11 9 -16 28 -16 23 0 33 -9 57 -50 31 -53
69 -76 110 -66 60 15 82 75 50 136 -8 16 -12 31 -7 33 31 18 86 16 254 -9 141
-21 191 -25 200 -16 8 8 5 32 -12 94 -29 105 -36 118 -61 118 -29 0 -32 -21
-14 -85 9 -31 14 -59 11 -62 -4 -5 -288 34 -291 40 -5 9 -45 158 -45 169 0 7
51 56 113 109 l113 96 15 -51 c12 -44 18 -51 39 -51 22 0 25 4 23 35 -4 64
-36 145 -58 147 -13 2 -70 -40 -162 -118z m-129 -241 c33 -115 40 -101 -69
-132 -53 -15 -102 -25 -109 -23 -11 5 -46 110 -46 140 0 10 156 63 197 66 6 1
18 -23 27 -51z"/>
<path d="M124 459 c-119 -32 -93 -210 30 -209 48 1 76 19 76 49 0 25 -26 39
-43 22 -18 -18 -55 -13 -71 11 -24 33 0 63 50 64 60 1 64 3 64 23 0 32 -55 53
-106 40z"/>
<path d="M323 458 c-75 -19 -100 -122 -44 -179 24 -23 38 -29 73 -29 52 0 85
21 104 66 18 42 9 86 -25 117 -31 29 -64 36 -108 25z"/>
<path d="M521 460 c-15 -8 -46 -173 -37 -195 3 -10 15 -15 28 -13 17 2 24 11
26 33 l4 30 13 -33 c18 -43 59 -45 73 -4 l10 27 7 -27 c5 -20 14 -28 30 -28
13 0 25 6 28 13 8 21 -29 189 -44 198 -20 12 -47 -8 -54 -41 -8 -36 -21 -32
-30 9 -6 29 -33 45 -54 31z"/>
<path d="M967 457 c-9 -7 -17 -25 -19 -41 l-3 -30 -25 37 c-19 29 -31 37 -50
35 -25 -3 -25 -4 -25 -103 l0 -100 27 -3 c25 -3 27 0 30 39 l3 43 29 -42 c20
-29 36 -42 52 -42 24 0 24 1 24 104 0 109 -9 129 -43 103z"/>
<path d="M1103 458 c-75 -19 -100 -122 -44 -179 24 -23 38 -29 74 -29 56 0 85
22 97 73 6 30 5 41 -8 54 -9 9 -15 26 -14 38 5 38 -45 59 -105 43z"/>
<path d="M244 184 c-26 -38 -9 -74 46 -101 34 -17 40 -22 22 -22 -12 -1 -31 4
-41 11 -15 9 -23 9 -35 -1 -21 -18 -20 -27 4 -51 14 -14 33 -20 63 -20 48 0
59 6 76 38 19 35 -2 77 -47 96 l-37 16 41 -6 c34 -5 42 -3 48 12 11 28 -27 54
-80 54 -36 0 -47 -5 -60 -26z"/>
<path d="M447 184 c-70 -70 -27 -184 71 -184 54 0 77 12 97 50 19 37 19 73 0
110 -20 38 -43 50 -98 50 -34 0 -50 -6 -70 -26z"/>
<path d="M679 181 c-24 -24 -29 -38 -29 -76 0 -38 5 -52 29 -76 42 -42 110
-42 152 0 24 24 29 38 29 76 0 38 -5 52 -29 76 -42 42 -110 42 -152 0z"/>
<path d="M890 105 l0 -105 25 0 c19 0 26 7 31 28 3 15 7 31 8 36 1 5 13 -7 25
-28 19 -30 28 -37 50 -34 25 3 26 5 29 83 4 104 -2 125 -33 125 -21 0 -24 -5
-27 -42 l-3 -43 -29 43 c-20 29 -36 42 -52 42 -24 0 -24 -1 -24 -105z"/>
</g>
</svg>
