<svg width="70" height="74" viewBox="0 0 70 74" fill="none" xmlns="http://www.w3.org/2000/svg">
<path d="M55.28 22.5234C56.695 21.5828 58.055 20.5345 59.3 19.3693C61.91 16.9265 63.655 13.9221 64.215 10.9084C64.83 7.6045 63.93 4.53462 61.745 2.49428C60.005 0.865743 57.645 0 54.92 0C51.045 0 46.955 1.74085 43.71 4.77797C38.515 9.64017 35.49 16.3462 33.86 21.1382C32.655 16.3275 30.25 9.83204 25.575 5.45652C23.07 3.112 19.865 1.90464 16.835 1.90464C14.36 1.90464 12.01 2.70954 10.25 4.35212C6.345 8.00696 6.875 14.4275 11.43 18.6907C13.055 20.2116 14.955 21.4751 16.955 22.5234H0V41.2421H5V74H65V41.2421H70V22.5234H55.275H55.28ZM47.685 8.49832C49.85 6.47202 52.555 5.25998 54.915 5.25998C55.75 5.25998 56.925 5.42377 57.765 6.20995C59.8 8.11459 58.655 12.5229 55.32 15.6442C51.885 18.8592 47.27 21.068 43.255 22.5234H39.295C40.745 18.3163 43.36 12.5463 47.685 8.49832ZM13.28 10.8896C13.225 10.2205 13.275 8.97097 14.235 8.07715C15.035 7.3284 16.095 7.16929 16.84 7.16929C18.5 7.16929 20.235 7.904 21.6 9.17688C24.245 11.6524 26.425 15.5927 27.9 20.5766C27.94 20.7123 27.98 20.8434 28.015 20.9791C27.875 20.9416 27.73 20.9089 27.585 20.8714C22.265 19.4909 18.055 17.4506 15.405 14.975C14.17 13.8191 13.39 12.331 13.275 10.8943L13.28 10.8896ZM30.005 69.3203H10.005V38.9023H30.005V69.3203ZM30.005 36.5625H5.005V27.2031H30.005V36.5625ZM60.005 69.3203H40.005V38.9023H60.005V69.3203ZM65.005 36.5625H40.005V27.2031H65.005V36.5625Z" fill="black"/>
</svg>
