<svg width="25" height="20" viewBox="0 0 25 20" fill="none" xmlns="http://www.w3.org/2000/svg">
<path d="M23.0769 3.07692H16.9231V1.53846C16.9231 0.692308 16.2308 0 15.3846 0H9.23077C8.38461 0 7.69231 0.692308 7.69231 1.53846V3.07692H1.53846C0.692308 3.07692 0 3.76923 0 4.61538V18.4615C0 19.3077 0.692308 20 1.53846 20H23.0769C23.9231 20 24.6154 19.3077 24.6154 18.4615V4.61538C24.6154 3.76923 23.9231 3.07692 23.0769 3.07692ZM9.23077 1.54154L9.23384 1.53846H15.3815L15.3846 1.54154V3.07692H9.23077V1.54154ZM23.0769 9.23077H20V11.5385C20 11.9615 19.6538 12.3077 19.2308 12.3077H17.6923C17.2692 12.3077 16.9231 11.9615 16.9231 11.5385V9.23077H7.69231V11.5385C7.69231 11.9615 7.34615 12.3077 6.92308 12.3077H5.38461C4.96154 12.3077 4.61538 11.9615 4.61538 11.5385V9.23077H1.53846V7.69231H23.0769V9.23077Z" fill="black"/>
</svg>
