<svg width="45" height="43" viewBox="0 0 45 43" fill="none" xmlns="http://www.w3.org/2000/svg">
<path d="M43.1523 16.2708H27.9585V1.66138C27.9585 0.928252 27.3397 0.333252 26.5772 0.333252H18.2897C17.5273 0.333252 16.9085 0.928252 16.9085 1.66138V16.2708H1.71475C0.952296 16.2708 0.333496 16.8658 0.333496 17.5989V25.5676C0.333496 26.3008 0.952296 26.8958 1.71475 26.8958H16.9085V41.5051C16.9085 42.2383 17.5273 42.8333 18.2897 42.8333H26.5772C27.3397 42.8333 27.9585 42.2383 27.9585 41.5051V26.8958H43.1523C43.9147 26.8958 44.5335 26.3008 44.5335 25.5676V17.5989C44.5335 16.8658 43.9147 16.2708 43.1523 16.2708Z" fill="black"/>
</svg>
